<?xml version="1.0" encoding="UTF-8" standalone="no"?>
<!DOCTYPE svg PUBLIC "-//W3C//DTD SVG 1.1//EN" "http://www.w3.org/Graphics/SVG/1.1/DTD/svg11.dtd">
<svg width="100%" height="100%" viewBox="0 0 600 556" version="1.1" xmlns="http://www.w3.org/2000/svg" xmlns:xlink="http://www.w3.org/1999/xlink" xml:space="preserve" xmlns:serif="http://www.serif.com/" style="fill-rule:evenodd;clip-rule:evenodd;stroke-linecap:square;stroke-linejoin:round;stroke-miterlimit:1.41421;">
    <g id="Social-Share-600x556">
        <rect id="Rectangle" x="0" y="0" width="600" height="556" style="fill:rgb(34,34,34);"/>
        <g transform="matrix(1,0,0,1,24,35)">
            <g id="Even-big-data-system">
                <text x="0px" y="0px" style="font-family:'Graphik-Bold', 'Graphik', sans-serif;font-weight:700;font-size:16px;fill:white;">Displaced people from apartment razing in 5 A<tspan x="360.624px " y="0px ">t</tspan>lanta suburbs.</text>
            </g>
        </g>
        <g transform="matrix(1,0,0,1,24,62)">
            <text x="0px" y="0px" style="font-family:'Graphik-Medium', 'Graphik', sans-serif;font-weight:500;font-size:16px;fill:rgb(126,126,126);">Hispanic r<tspan x="76.528px " y="0px ">e</tspan>nters mak<tspan x="160.592px " y="0px ">e</tspan> up 33<tspan x="216.992px " y="0px ">%</tspan> of ar<tspan x="268.064px 277.424px 285.984px 289.408px " y="0px 0px 0px 0px ">ea&apos;s</tspan> r<tspan x="307.312px " y="0px ">e</tspan>nter population,</text>
            <text x="0px" y="18px" style="font-family:'Graphik-Medium', 'Graphik', sans-serif;font-weight:500;font-size:16px;fill:rgb(126,126,126);">but the<tspan x="54.192px " y="18px ">y</tspan> mak<tspan x="98.656px " y="18px ">e</tspan> up nearly</text>
            <text x="186.672px" y="18px" style="font-family:'Graphik-Medium', 'Graphik', sans-serif;font-weight:500;font-size:16px;fill:rgb(93,163,145);">60<tspan x="207.984px " y="18px ">%</tspan></text>
            <text x="224.608px" y="18px" style="font-family:'Graphik-Medium', 'Graphik', sans-serif;font-weight:500;font-size:16px;fill:rgb(126,126,126);">of people displaced thr<tspan x="400.672px " y="18px ">o</tspan>ugh demolition.</text>
        </g>
        <g id="_-Contributions-to-ImageNet-" serif:id="(Contributions to ImageNet)" transform="matrix(1,0,0,1,84.3702,221.04)">
            <text x="0px" y="0px" style="font-family:'Graphik-Medium', 'Graphik', sans-serif;font-weight:500;font-size:16px;fill:rgb(126,126,126);">Displaced</text>
            <text x="0px" y="16px" style="font-family:'Graphik-Medium', 'Graphik', sans-serif;font-weight:500;font-size:16px;fill:rgb(126,126,126);">r<tspan x="6.192px " y="16px ">e</tspan>sident<tspan x="62.912px " y="16px ">s</tspan></text>
        </g>
        <g transform="matrix(1,0,0,1,24,534)">
            <g id="Source">
                <text x="0px" y="0px" style="font-family:'Graphik-Regular', 'Graphik', sans-serif;font-size:10px;fill:rgb(126,126,126);">SOUR<tspan x="27.47px " y="0px ">C</tspan>E</text>
            </g>
        </g>
        <g transform="matrix(1,0,0,1,81,534)">
            <g id="Shankar-2017">
                <text x="0px" y="0px" style="font-family:'Graphik-Bold', 'Graphik', sans-serif;font-weight:700;font-size:10px;fill:rgb(126,126,126);">Scott Markle<tspan x="62.19px " y="0px ">y</tspan> 2018</text>
            </g>
        </g>
        <g transform="matrix(1,0,0,1,475.62,534)">
            <g id="Parametric-Press">
                <text x="0px" y="0px" style="font-family:'Graphik-Bold', 'Graphik', sans-serif;font-weight:700;font-size:12px;fill:rgb(126,126,126);">P<tspan x="7.584px 14.52px 19.536px " y="0px 0px 0px ">ara</tspan>metric Press</text>
            </g>
        </g>
        <rect id="Rectangle1" serif:id="Rectangle" x="24" y="511" width="552" height="1" style="fill:rgb(44,44,44);"/>
        <g id="PolyCollection_1" transform="matrix(0.821919,0,0,0.641132,-10.3805,66.3949)">
            <path d="M115.364,629.565L115.364,630L622.636,630L622.636,594.285L550.169,594.938L477.701,608.8L405.234,615.866L332.766,622.118L260.299,624.075L187.831,624.075L115.364,629.565Z" style="fill:none;stroke:rgb(34,34,34);stroke-width:4.07px;"/>
            <path d="M115.364,629.565L115.364,630L622.636,630L622.636,594.285L550.169,594.938L477.701,608.8L405.234,615.866L332.766,622.118L260.299,624.075L187.831,624.075L115.364,629.565Z" style="fill:rgb(102,102,102);fill-rule:nonzero;"/>
        </g>
        <g id="PolyCollection_2" transform="matrix(0.821919,0,0,0.641132,-10.3805,66.3949)">
            <path d="M115.364,622.988L115.364,629.565L187.831,624.075L260.299,624.075L332.766,622.118L405.234,615.866L477.701,608.8L550.169,594.938L622.636,594.285L622.636,448.872L550.169,452.134L477.701,495.242L405.234,529.053L332.766,546.884L260.299,562.267L187.831,562.267L115.364,622.988Z" style="fill:none;stroke:rgb(34,34,34);stroke-width:4.07px;"/>
            <path d="M115.364,622.988L115.364,629.565L187.831,624.075L260.299,624.075L332.766,622.118L405.234,615.866L477.701,608.8L550.169,594.938L622.636,594.285L622.636,448.872L550.169,452.134L477.701,495.242L405.234,529.053L332.766,546.884L260.299,562.267L187.831,562.267L115.364,622.988Z" style="fill:rgb(102,102,102);fill-rule:nonzero;"/>
        </g>
        <g id="PolyCollection_3" transform="matrix(0.821919,0,0,0.641132,-10.3805,66.3949)">
            <path d="M115.364,622.988L187.831,562.267L260.299,562.267L332.766,546.884L405.234,529.053L477.701,495.242L550.169,452.134L622.636,448.872L622.636,436.859L550.169,440.555L477.701,489.425L405.234,524.922L332.766,543.622L260.299,559.441L187.831,559.441L115.364,622.988Z" style="fill:none;stroke:rgb(34,34,34);stroke-width:4.07px;"/>
            <path d="M115.364,622.988L187.831,562.267L260.299,562.267L332.766,546.884L405.234,529.053L477.701,495.242L550.169,452.134L622.636,448.872L622.636,436.859L550.169,440.555L477.701,489.425L405.234,524.922L332.766,543.622L260.299,559.441L187.831,559.441L115.364,622.988Z" style="fill:rgb(102,102,102);fill-rule:nonzero;"/>
        </g>
        <g id="PolyCollection_4" transform="matrix(0.821919,0,0,0.641132,-10.3805,66.4808)">
            <path d="M115.364,621.792L115.364,622.988L187.831,559.441L260.299,559.441L332.766,543.622L405.234,524.922L477.701,489.425L550.169,440.555L622.636,436.859L622.636,145.109L550.169,165.439L477.701,321.996L405.234,395.6L332.766,479.966L260.299,526.444L187.831,526.444L115.364,621.792Z" style="fill:none;stroke:rgb(34,34,34);stroke-width:4.07px;"/>
            <path d="M115.364,621.792L115.364,622.988L187.831,559.441L260.299,559.441L332.766,543.622L405.234,524.922L477.701,489.425L550.169,440.555L622.636,436.859L622.636,145.109L550.169,165.439L477.701,321.996L405.234,395.6L332.766,479.966L260.299,526.444L187.831,526.444L115.364,621.792Z" style="fill:rgb(93,163,145);fill-rule:nonzero;"/>
        </g>
        <g id="PolyCollection_5" transform="matrix(0.821919,0,0,0.641132,-10.3805,66.3949)">
            <path d="M115.364,621.357L115.364,621.792L187.831,526.444L260.299,526.444L332.766,479.966L405.234,395.6L477.701,321.996L550.169,165.439L622.636,145.109L622.636,135.813L550.169,156.144L477.701,317.321L405.234,392.827L332.766,478.934L260.299,526.009L187.831,526.009L115.364,621.357Z" style="fill:none;stroke:rgb(34,34,34);stroke-width:4.07px;"/>
            <path d="M115.364,621.357L115.364,621.792L187.831,526.444L260.299,526.444L332.766,479.966L405.234,395.6L477.701,321.996L550.169,165.439L622.636,145.109L622.636,135.813L550.169,156.144L477.701,317.321L405.234,392.827L332.766,478.934L260.299,526.009L187.831,526.009L115.364,621.357Z" style="fill:rgb(102,102,102);fill-rule:nonzero;"/>
        </g>
        <g id="mb17555e5b4" transform="matrix(0.821919,0,0,1.35036,84.439,474.524)">
            <path d="M0,0L0,3.5" style="fill:none;stroke:rgb(126,126,126);stroke-width:0.88px;stroke-linecap:butt;stroke-linejoin:miter;stroke-miterlimit:4;"/>
        </g>
        <g id="mb17555e5b41" serif:id="mb17555e5b4" transform="matrix(0.821919,0,0,1.35036,144.001,474.524)">
            <path d="M0,0L0,3.5" style="fill:none;stroke:rgb(126,126,126);stroke-width:0.88px;stroke-linecap:butt;stroke-linejoin:miter;stroke-miterlimit:4;"/>
        </g>
        <g id="mb17555e5b42" serif:id="mb17555e5b4" transform="matrix(0.821919,0,0,1.35036,203.564,474.524)">
            <path d="M0,0L0,3.5" style="fill:none;stroke:rgb(126,126,126);stroke-width:0.88px;stroke-linecap:butt;stroke-linejoin:miter;stroke-miterlimit:4;"/>
        </g>
        <g id="mb17555e5b43" serif:id="mb17555e5b4" transform="matrix(0.821919,0,0,1.35036,263.126,474.524)">
            <path d="M0,0L0,3.5" style="fill:none;stroke:rgb(126,126,126);stroke-width:0.88px;stroke-linecap:butt;stroke-linejoin:miter;stroke-miterlimit:4;"/>
        </g>
        <g id="mb17555e5b44" serif:id="mb17555e5b4" transform="matrix(0.821919,0,0,1.35036,322.689,474.524)">
            <path d="M0,0L0,3.5" style="fill:none;stroke:rgb(126,126,126);stroke-width:0.88px;stroke-linecap:butt;stroke-linejoin:miter;stroke-miterlimit:4;"/>
        </g>
        <g id="mb17555e5b45" serif:id="mb17555e5b4" transform="matrix(0.821919,0,0,1.35036,382.251,474.524)">
            <path d="M0,0L0,3.5" style="fill:none;stroke:rgb(126,126,126);stroke-width:0.88px;stroke-linecap:butt;stroke-linejoin:miter;stroke-miterlimit:4;"/>
        </g>
        <g id="mb17555e5b46" serif:id="mb17555e5b4" transform="matrix(0.821919,0,0,1.35036,441.814,474.524)">
            <path d="M0,0L0,3.5" style="fill:none;stroke:rgb(126,126,126);stroke-width:0.88px;stroke-linecap:butt;stroke-linejoin:miter;stroke-miterlimit:4;"/>
        </g>
        <g id="mb17555e5b47" serif:id="mb17555e5b4" transform="matrix(0.821919,0,0,1.35036,501.376,474.524)">
            <path d="M0,0L0,3.5" style="fill:none;stroke:rgb(126,126,126);stroke-width:0.88px;stroke-linecap:butt;stroke-linejoin:miter;stroke-miterlimit:4;"/>
        </g>
        <g id="patch_5" transform="matrix(0.762865,0,0,0.518806,7.03973,147.676)">
            <path d="M90,630L648,630" style="fill:none;stroke:rgb(126,126,126);stroke-width:1.38px;stroke-linejoin:miter;stroke-miterlimit:4;"/>
        </g>
        <g id="patch_3" transform="matrix(1.08648,0,0,0.648888,-22.0861,65.7248)">
            <path d="M90,630L90,86.4" style="fill:none;stroke:rgb(126,126,126);stroke-width:1.38px;stroke-linejoin:miter;stroke-miterlimit:4;"/>
        </g>
        <g id="m796b829b77" transform="matrix(1.35036,0,0,0.641132,75.6975,470.308)">
            <path d="M0,0L-3.5,0" style="fill:none;stroke:rgb(126,126,126);stroke-width:0.98px;stroke-linecap:butt;stroke-linejoin:miter;stroke-miterlimit:4;"/>
        </g>
        <g id="m796b829b771" serif:id="m796b829b77" transform="matrix(1.35036,0,0,0.641132,75.6975,400.604)">
            <path d="M0,0L-3.5,0" style="fill:none;stroke:rgb(126,126,126);stroke-width:0.98px;stroke-linecap:butt;stroke-linejoin:miter;stroke-miterlimit:4;"/>
        </g>
        <g id="m796b829b772" serif:id="m796b829b77" transform="matrix(1.35036,0,0,0.641132,75.6975,330.9)">
            <path d="M0,0L-3.5,0" style="fill:none;stroke:rgb(126,126,126);stroke-width:0.98px;stroke-linecap:butt;stroke-linejoin:miter;stroke-miterlimit:4;"/>
        </g>
        <g id="m796b829b773" serif:id="m796b829b77" transform="matrix(1.35036,0,0,0.641132,75.6975,261.196)">
            <path d="M0,0L-3.5,0" style="fill:none;stroke:rgb(126,126,126);stroke-width:0.98px;stroke-linecap:butt;stroke-linejoin:miter;stroke-miterlimit:4;"/>
        </g>
        <g id="m796b829b774" serif:id="m796b829b77" transform="matrix(1.35036,0,0,0.641132,75.6975,191.493)">
            <path d="M0,0L-3.5,0" style="fill:none;stroke:rgb(126,126,126);stroke-width:0.98px;stroke-linecap:butt;stroke-linejoin:miter;stroke-miterlimit:4;"/>
        </g>
        <g id="m796b829b775" serif:id="m796b829b77" transform="matrix(1.35036,0,0,0.641132,75.6975,121.789)">
            <path d="M0,0L-3.5,0" style="fill:none;stroke:rgb(126,126,126);stroke-width:0.98px;stroke-linecap:butt;stroke-linejoin:miter;stroke-miterlimit:4;"/>
        </g>
        <g transform="matrix(1,0,0,1,157.431,55.7347)">
            <text x="330.523px" y="439.209px" style="font-family:'Graphik-Medium', 'Graphik', sans-serif;font-weight:500;font-size:12px;fill:rgb(126,126,126);">2017</text>
        </g>
        <g transform="matrix(1,0,0,1,97.4848,55.7347)">
            <text x="330.511px" y="439.209px" style="font-family:'Graphik-Medium', 'Graphik', sans-serif;font-weight:500;font-size:12px;fill:rgb(126,126,126);">2016</text>
        </g>
        <g transform="matrix(1,0,0,1,37.9464,55.7347)">
            <text x="330.733px" y="439.209px" style="font-family:'Graphik-Medium', 'Graphik', sans-serif;font-weight:500;font-size:12px;fill:rgb(126,126,126);">2015</text>
        </g>
        <g transform="matrix(1,0,0,1,-21.73,55.7347)">
            <text x="330.601px" y="439.209px" style="font-family:'Graphik-Medium', 'Graphik', sans-serif;font-weight:500;font-size:12px;fill:rgb(126,126,126);">201<tspan x="350.737px " y="439.209px ">4</tspan></text>
        </g>
        <g transform="matrix(1,0,0,1,-81.0587,55.7347)">
            <text x="330.619px" y="439.209px" style="font-family:'Graphik-Medium', 'Graphik', sans-serif;font-weight:500;font-size:12px;fill:rgb(126,126,126);">2013</text>
        </g>
        <g transform="matrix(1,0,0,1,-140.765,55.7347)">
            <text x="330.889px" y="439.209px" style="font-family:'Graphik-Medium', 'Graphik', sans-serif;font-weight:500;font-size:12px;fill:rgb(126,126,126);">2012</text>
        </g>
        <g transform="matrix(1,0,0,1,-199.991,55.7347)">
            <text x="331.873px" y="439.209px" style="font-family:'Graphik-Medium', 'Graphik', sans-serif;font-weight:500;font-size:12px;fill:rgb(126,126,126);">201<tspan x="352.129px " y="439.209px ">1</tspan></text>
        </g>
        <g transform="matrix(1,0,0,1,-259.86,55.7347)">
            <text x="330.151px" y="439.209px" style="font-family:'Graphik-Medium', 'Graphik', sans-serif;font-weight:500;font-size:12px;fill:rgb(126,126,126);">2010</text>
        </g>
        <g transform="matrix(1,0,0,1,-292.675,35.3887)">
            <text x="349.963px" y="439.209px" style="font-family:'Graphik-Medium', 'Graphik', sans-serif;font-weight:500;font-size:12px;fill:rgb(126,126,126);">0</text>
        </g>
        <g transform="matrix(1,0,0,1,-292.675,-34.3151)">
            <text x="326.263px" y="439.209px" style="font-family:'Graphik-Medium', 'Graphik', sans-serif;font-weight:500;font-size:12px;fill:rgb(126,126,126);">2000</text>
        </g>
        <g transform="matrix(1,0,0,1,-292.675,-104.697)">
            <text x="322.663px" y="439.209px" style="font-family:'Graphik-Medium', 'Graphik', sans-serif;font-weight:500;font-size:12px;fill:rgb(126,126,126);">4<tspan x="330.235px 333.139px " y="439.209px 439.209px ">,0</tspan>00</text>
        </g>
        <g transform="matrix(1,0,0,1,-292.675,-174.401)">
            <text x="322.843px" y="439.209px" style="font-family:'Graphik-Medium', 'Graphik', sans-serif;font-weight:500;font-size:12px;fill:rgb(126,126,126);">6<tspan x="330.235px 333.139px " y="439.209px 439.209px ">,0</tspan>00</text>
        </g>
        <g transform="matrix(1,0,0,1,-292.675,-244.105)">
            <text x="322.951px" y="439.209px" style="font-family:'Graphik-Medium', 'Graphik', sans-serif;font-weight:500;font-size:12px;fill:rgb(126,126,126);">8<tspan x="330.235px 333.139px " y="439.209px 439.209px ">,0</tspan>00</text>
        </g>
        <g transform="matrix(1,0,0,1,-292.675,-282.813)">
            <text x="327.343px" y="439.209px" style="font-family:'Graphik-Medium', 'Graphik', sans-serif;font-weight:500;font-size:12px;fill:white;">9<tspan x="334.387px 337.291px " y="439.209px 439.209px ">,0</tspan>91</text>
        </g>
        <g transform="matrix(1,0,0,1,-292.675,-313.131)">
            <text x="317.395px" y="439.209px" style="font-family:'Graphik-Medium', 'Graphik', sans-serif;font-weight:500;font-size:12px;fill:rgb(126,126,126);">10<tspan x="330.235px 333.139px " y="439.209px 439.209px ">,0</tspan>00</text>
        </g>
    </g>
    <g id="_-Contributions-to-ImageNet-1" serif:id="(Contributions to ImageNet)" transform="matrix(1,0,0,1,509.984,266.352)">
        <text x="0px" y="0px" style="font-family:'Graphik-Medium', 'Graphik', sans-serif;font-weight:500;font-size:16px;fill:rgb(93,163,145);">Hispanic</text>
    </g>
    <g id="_-Contributions-to-ImageNet-2" serif:id="(Contributions to ImageNet)" transform="matrix(1,0,0,1,509.984,355.29)">
        <text x="0px" y="0px" style="font-family:'Graphik-Regular', 'Graphik', sans-serif;font-size:16px;fill:rgb(126,126,126);">Asian</text>
    </g>
    <g id="_-Contributions-to-ImageNet-3" serif:id="(Contributions to ImageNet)" transform="matrix(1,0,0,1,509.984,408.83)">
        <text x="0px" y="0px" style="font-family:'Graphik-Regular', 'Graphik', sans-serif;font-size:16px;fill:rgb(126,126,126);">Black</text>
    </g>
    <g id="_-Contributions-to-ImageNet-4" serif:id="(Contributions to ImageNet)" transform="matrix(1,0,0,1,509.984,462.371)">
        <text x="0px" y="0px" style="font-family:'Graphik-Regular', 'Graphik', sans-serif;font-size:16px;fill:rgb(126,126,126);">White</text>
    </g>
    <g id="_-Contributions-to-ImageNet-5" serif:id="(Contributions to ImageNet)" transform="matrix(1,0,0,1,509.984,160.504)">
        <text x="0px" y="0px" style="font-family:'Graphik-Regular', 'Graphik', sans-serif;font-size:16px;fill:rgb(126,126,126);">Other</text>
    </g>
    <g transform="matrix(0.999775,0,0,1,0.0170291,-0.535399)">
        <path d="M501.471,153.473L75.728,153.473" style="fill:none;stroke:white;stroke-width:1px;stroke-linecap:butt;stroke-miterlimit:1.5;stroke-dasharray:5,5,0,0;"/>
    </g>
</svg>
