<?xml version="1.0" encoding="UTF-8" standalone="no"?>
<!DOCTYPE svg PUBLIC "-//W3C//DTD SVG 1.1//EN" "http://www.w3.org/Graphics/SVG/1.1/DTD/svg11.dtd">
<svg width="100%" height="100%" viewBox="0 0 600 556" version="1.1" xmlns="http://www.w3.org/2000/svg" xmlns:xlink="http://www.w3.org/1999/xlink" xml:space="preserve" xmlns:serif="http://www.serif.com/" style="fill-rule:evenodd;clip-rule:evenodd;stroke-linecap:square;stroke-linejoin:round;stroke-miterlimit:1.41421;">
    <g id="Social-Share-600x556">
        <rect id="Rectangle" x="0" y="0" width="600" height="556" style="fill:rgb(34,34,34);"/>
        <g transform="matrix(1,0,0,1,24,35)">
            <g id="Even-big-data-system">
                <text x="0px" y="0px" style="font-family:'Graphik-Bold', 'Graphik', sans-serif;font-weight:700;font-size:16px;fill:white;">Displaced people from apartment razing in 5 A<tspan x="360.624px " y="0px ">t</tspan>lanta suburbs.</text>
            </g>
        </g>
        <g id="In-the-ImageNew-data">
            <g transform="matrix(1,0,0,1,24,62)">
                <text x="0px" y="0px" style="font-family:'Graphik-Bold', 'Graphik', sans-serif;font-weight:700;font-size:16px;fill:rgb(126,126,126);">Hispanic renters mak<tspan x="165.552px " y="0px ">e</tspan> up 3<tspan x="211.952px 222.144px " y="0px 0px ">3%</tspan> of area<tspan x="292.32px 296.176px " y="0px 0px ">&apos;s</tspan> renter popula<tspan x="414.048px " y="0px ">t</tspan>ion,</text>
            </g>
            <g transform="matrix(1,0,0,1,24,81)">
                <text x="0px" y="0px" style="font-family:'Graphik-Bold', 'Graphik', sans-serif;font-weight:700;font-size:16px;fill:rgb(126,126,126);">but the<tspan x="55.008px " y="0px ">y</tspan> mak<tspan x="100.56px " y="0px ">e</tspan> up nearly</text>
                <text x="189.696px" y="0px" style="font-family:'Graphik-Bold', 'Graphik', sans-serif;font-weight:700;font-size:16px;fill:rgb(72,1,255);">60<tspan x="212.032px " y="0px ">%</tspan></text>
                <text x="228.416px" y="0px" style="font-family:'Graphik-Bold', 'Graphik', sans-serif;font-weight:700;font-size:16px;fill:rgb(126,126,126);">of people displaced through demolition.</text>
            </g>
        </g>
        <g id="_-Contributions-to-ImageNet-" serif:id="(Contributions to ImageNet)" transform="matrix(1,0,0,1,66.868,133.383)">
            <text x="0px" y="0px" style="font-family:'Graphik-Medium', 'Graphik', sans-serif;font-weight:500;font-size:16px;fill:rgb(210,210,210);">Displaced</text>
            <text x="0px" y="16px" style="font-family:'Graphik-Medium', 'Graphik', sans-serif;font-weight:500;font-size:16px;fill:rgb(210,210,210);">people</text>
        </g>
        <g transform="matrix(1,0,0,1,24,534)">
            <g id="Source">
                <text x="0px" y="0px" style="font-family:'Graphik-Regular', 'Graphik', sans-serif;font-size:10px;fill:rgb(126,126,126);">SOUR<tspan x="27.47px " y="0px ">C</tspan>E</text>
            </g>
        </g>
        <g transform="matrix(1,0,0,1,81,534)">
            <g id="Shankar-2017">
                <text x="0px" y="0px" style="font-family:'Graphik-Bold', 'Graphik', sans-serif;font-weight:700;font-size:10px;fill:rgb(126,126,126);">Scott Markle<tspan x="62.19px " y="0px ">y</tspan> 2018</text>
            </g>
        </g>
        <g transform="matrix(1,0,0,1,475.62,534)">
            <g id="Parametric-Press">
                <text x="0px" y="0px" style="font-family:'Graphik-Bold', 'Graphik', sans-serif;font-weight:700;font-size:12px;fill:rgb(126,126,126);">P<tspan x="7.584px 14.52px 19.536px " y="0px 0px 0px ">ara</tspan>metric Press</text>
            </g>
        </g>
        <rect id="Rectangle1" serif:id="Rectangle" x="24" y="511" width="552" height="1" style="fill:rgb(44,44,44);"/>
        <g id="PolyCollection_1" transform="matrix(0.882661,0,0,0.641132,-30.3028,66.3949)">
            <path d="M115.364,629.565L115.364,630L622.636,630L622.636,594.285L550.169,594.938L477.701,608.8L405.234,615.866L332.766,622.118L260.299,624.075L187.831,624.075L115.364,629.565Z" style="fill:none;stroke:rgb(34,34,34);stroke-width:3.89px;"/>
            <path d="M115.364,629.565L115.364,630L622.636,630L622.636,594.285L550.169,594.938L477.701,608.8L405.234,615.866L332.766,622.118L260.299,624.075L187.831,624.075L115.364,629.565Z" style="fill:rgb(102,102,102);fill-rule:nonzero;"/>
        </g>
        <g id="PolyCollection_2" transform="matrix(0.882661,0,0,0.641132,-30.3028,66.3949)">
            <path d="M115.364,622.988L115.364,629.565L187.831,624.075L260.299,624.075L332.766,622.118L405.234,615.866L477.701,608.8L550.169,594.938L622.636,594.285L622.636,448.872L550.169,452.134L477.701,495.242L405.234,529.053L332.766,546.884L260.299,562.267L187.831,562.267L115.364,622.988Z" style="fill:none;stroke:rgb(34,34,34);stroke-width:3.89px;"/>
            <path d="M115.364,622.988L115.364,629.565L187.831,624.075L260.299,624.075L332.766,622.118L405.234,615.866L477.701,608.8L550.169,594.938L622.636,594.285L622.636,448.872L550.169,452.134L477.701,495.242L405.234,529.053L332.766,546.884L260.299,562.267L187.831,562.267L115.364,622.988Z" style="fill:rgb(102,102,102);fill-rule:nonzero;"/>
        </g>
        <g id="PolyCollection_3" transform="matrix(0.882661,0,0,0.641132,-30.3028,66.3949)">
            <path d="M115.364,622.988L187.831,562.267L260.299,562.267L332.766,546.884L405.234,529.053L477.701,495.242L550.169,452.134L622.636,448.872L622.636,436.859L550.169,440.555L477.701,489.425L405.234,524.922L332.766,543.622L260.299,559.441L187.831,559.441L115.364,622.988Z" style="fill:none;stroke:rgb(34,34,34);stroke-width:3.89px;"/>
            <path d="M115.364,622.988L187.831,562.267L260.299,562.267L332.766,546.884L405.234,529.053L477.701,495.242L550.169,452.134L622.636,448.872L622.636,436.859L550.169,440.555L477.701,489.425L405.234,524.922L332.766,543.622L260.299,559.441L187.831,559.441L115.364,622.988Z" style="fill:rgb(102,102,102);fill-rule:nonzero;"/>
        </g>
        <g id="PolyCollection_4" transform="matrix(0.882661,0,0,0.641132,-30.3028,66.3949)">
            <path d="M115.364,621.792L115.364,622.988L187.831,559.441L260.299,559.441L332.766,543.622L405.234,524.922L477.701,489.425L550.169,440.555L622.636,436.859L622.636,145.109L550.169,165.439L477.701,321.996L405.234,395.6L332.766,479.966L260.299,526.444L187.831,526.444L115.364,621.792Z" style="fill:none;stroke:rgb(34,34,34);stroke-width:3.89px;"/>
            <path d="M115.364,621.792L115.364,622.988L187.831,559.441L260.299,559.441L332.766,543.622L405.234,524.922L477.701,489.425L550.169,440.555L622.636,436.859L622.636,145.109L550.169,165.439L477.701,321.996L405.234,395.6L332.766,479.966L260.299,526.444L187.831,526.444L115.364,621.792Z" style="fill:rgb(72,1,255);fill-rule:nonzero;"/>
        </g>
        <g id="PolyCollection_5" transform="matrix(0.882661,0,0,0.641132,-30.3028,66.3949)">
            <path d="M115.364,621.357L115.364,621.792L187.831,526.444L260.299,526.444L332.766,479.966L405.234,395.6L477.701,321.996L550.169,165.439L622.636,145.109L622.636,135.813L550.169,156.144L477.701,317.321L405.234,392.827L332.766,478.934L260.299,526.009L187.831,526.009L115.364,621.357Z" style="fill:none;stroke:rgb(34,34,34);stroke-width:3.89px;"/>
            <path d="M115.364,621.357L115.364,621.792L187.831,526.444L260.299,526.444L332.766,479.966L405.234,395.6L477.701,321.996L550.169,165.439L622.636,145.109L622.636,135.813L550.169,156.144L477.701,317.321L405.234,392.827L332.766,478.934L260.299,526.009L187.831,526.009L115.364,621.357Z" style="fill:rgb(102,102,102);fill-rule:nonzero;"/>
        </g>
        <g id="mb17555e5b4" transform="matrix(0.882661,0,0,1.35036,71.5242,474.524)">
            <path d="M0,0L0,3.5" style="fill:none;stroke:rgb(210,210,210);stroke-width:0.88px;stroke-linecap:butt;stroke-linejoin:miter;stroke-miterlimit:4;"/>
        </g>
        <g id="mb17555e5b41" serif:id="mb17555e5b4" transform="matrix(0.882661,0,0,1.35036,135.488,474.524)">
            <path d="M0,0L0,3.5" style="fill:none;stroke:rgb(210,210,210);stroke-width:0.88px;stroke-linecap:butt;stroke-linejoin:miter;stroke-miterlimit:4;"/>
        </g>
        <g id="mb17555e5b42" serif:id="mb17555e5b4" transform="matrix(0.882661,0,0,1.35036,199.453,474.524)">
            <path d="M0,0L0,3.5" style="fill:none;stroke:rgb(210,210,210);stroke-width:0.88px;stroke-linecap:butt;stroke-linejoin:miter;stroke-miterlimit:4;"/>
        </g>
        <g id="mb17555e5b43" serif:id="mb17555e5b4" transform="matrix(0.882661,0,0,1.35036,263.417,474.524)">
            <path d="M0,0L0,3.5" style="fill:none;stroke:rgb(210,210,210);stroke-width:0.88px;stroke-linecap:butt;stroke-linejoin:miter;stroke-miterlimit:4;"/>
        </g>
        <g id="mb17555e5b44" serif:id="mb17555e5b4" transform="matrix(0.882661,0,0,1.35036,327.381,474.524)">
            <path d="M0,0L0,3.5" style="fill:none;stroke:rgb(210,210,210);stroke-width:0.88px;stroke-linecap:butt;stroke-linejoin:miter;stroke-miterlimit:4;"/>
        </g>
        <g id="mb17555e5b45" serif:id="mb17555e5b4" transform="matrix(0.882661,0,0,1.35036,391.346,474.524)">
            <path d="M0,0L0,3.5" style="fill:none;stroke:rgb(210,210,210);stroke-width:0.88px;stroke-linecap:butt;stroke-linejoin:miter;stroke-miterlimit:4;"/>
        </g>
        <g id="mb17555e5b46" serif:id="mb17555e5b4" transform="matrix(0.882661,0,0,1.35036,455.31,474.524)">
            <path d="M0,0L0,3.5" style="fill:none;stroke:rgb(210,210,210);stroke-width:0.88px;stroke-linecap:butt;stroke-linejoin:miter;stroke-miterlimit:4;"/>
        </g>
        <g id="mb17555e5b47" serif:id="mb17555e5b4" transform="matrix(0.882661,0,0,1.35036,519.274,474.524)">
            <path d="M0,0L0,3.5" style="fill:none;stroke:rgb(210,210,210);stroke-width:0.88px;stroke-linecap:butt;stroke-linejoin:miter;stroke-miterlimit:4;"/>
        </g>
        <g id="patch_5" transform="matrix(0.819242,0,0,0.518806,-11.5951,147.676)">
            <path d="M90,630L648,630" style="fill:none;stroke:rgb(210,210,210);stroke-width:1.38px;stroke-linejoin:miter;stroke-miterlimit:4;"/>
        </g>
        <g id="patch_3" transform="matrix(1.08648,0,0,0.648888,-35.6469,65.7248)">
            <path d="M90,630L90,86.4" style="fill:none;stroke:rgb(210,210,210);stroke-width:1.38px;stroke-linejoin:miter;stroke-miterlimit:4;"/>
        </g>
        <g id="m796b829b77" transform="matrix(1.35036,0,0,0.641132,62.1367,470.308)">
            <path d="M0,0L-3.5,0" style="fill:none;stroke:rgb(210,210,210);stroke-width:0.98px;stroke-linecap:butt;stroke-linejoin:miter;stroke-miterlimit:4;"/>
        </g>
        <g id="m796b829b771" serif:id="m796b829b77" transform="matrix(1.35036,0,0,0.641132,62.1367,400.604)">
            <path d="M0,0L-3.5,0" style="fill:none;stroke:rgb(210,210,210);stroke-width:0.98px;stroke-linecap:butt;stroke-linejoin:miter;stroke-miterlimit:4;"/>
        </g>
        <g id="m796b829b772" serif:id="m796b829b77" transform="matrix(1.35036,0,0,0.641132,62.1367,330.9)">
            <path d="M0,0L-3.5,0" style="fill:none;stroke:rgb(210,210,210);stroke-width:0.98px;stroke-linecap:butt;stroke-linejoin:miter;stroke-miterlimit:4;"/>
        </g>
        <g id="m796b829b773" serif:id="m796b829b77" transform="matrix(1.35036,0,0,0.641132,62.1367,261.196)">
            <path d="M0,0L-3.5,0" style="fill:none;stroke:rgb(210,210,210);stroke-width:0.98px;stroke-linecap:butt;stroke-linejoin:miter;stroke-miterlimit:4;"/>
        </g>
        <g id="m796b829b774" serif:id="m796b829b77" transform="matrix(1.35036,0,0,0.641132,62.1367,191.493)">
            <path d="M0,0L-3.5,0" style="fill:none;stroke:rgb(210,210,210);stroke-width:0.98px;stroke-linecap:butt;stroke-linejoin:miter;stroke-miterlimit:4;"/>
        </g>
        <g id="m796b829b775" serif:id="m796b829b77" transform="matrix(1.35036,0,0,0.641132,62.1367,121.789)">
            <path d="M0,0L-3.5,0" style="fill:none;stroke:rgb(210,210,210);stroke-width:0.98px;stroke-linecap:butt;stroke-linejoin:miter;stroke-miterlimit:4;"/>
        </g>
        <g transform="matrix(1,0,0,1,175.341,55.7347)">
            <text x="330.523px" y="439.209px" style="font-family:'Graphik-Medium', 'Graphik', sans-serif;font-weight:500;font-size:12px;fill:rgb(210,210,210);">2017</text>
        </g>
        <g transform="matrix(1,0,0,1,111.422,55.7347)">
            <text x="330.511px" y="439.209px" style="font-family:'Graphik-Medium', 'Graphik', sans-serif;font-weight:500;font-size:12px;fill:rgb(210,210,210);">2016</text>
        </g>
        <g transform="matrix(1,0,0,1,47.0828,55.7347)">
            <text x="330.733px" y="439.209px" style="font-family:'Graphik-Medium', 'Graphik', sans-serif;font-weight:500;font-size:12px;fill:rgb(210,210,210);">2015</text>
        </g>
        <g transform="matrix(1,0,0,1,-17.0315,55.7347)">
            <text x="330.601px" y="439.209px" style="font-family:'Graphik-Medium', 'Graphik', sans-serif;font-weight:500;font-size:12px;fill:rgb(210,210,210);">201<tspan x="350.737px " y="439.209px ">4</tspan></text>
        </g>
        <g transform="matrix(1,0,0,1,-80.8517,55.7347)">
            <text x="330.619px" y="439.209px" style="font-family:'Graphik-Medium', 'Graphik', sans-serif;font-weight:500;font-size:12px;fill:rgb(210,210,210);">2013</text>
        </g>
        <g transform="matrix(1,0,0,1,-144.84,55.7347)">
            <text x="330.889px" y="439.209px" style="font-family:'Graphik-Medium', 'Graphik', sans-serif;font-weight:500;font-size:12px;fill:rgb(210,210,210);">2012</text>
        </g>
        <g transform="matrix(1,0,0,1,-208.426,55.7347)">
            <text x="331.873px" y="439.209px" style="font-family:'Graphik-Medium', 'Graphik', sans-serif;font-weight:500;font-size:12px;fill:rgb(210,210,210);">201<tspan x="352.129px " y="439.209px ">1</tspan></text>
        </g>
        <g transform="matrix(1,0,0,1,-272.745,55.7347)">
            <text x="330.151px" y="439.209px" style="font-family:'Graphik-Medium', 'Graphik', sans-serif;font-weight:500;font-size:12px;fill:rgb(210,210,210);">2010</text>
        </g>
        <g transform="matrix(1,0,0,1,-306.236,35.3887)">
            <text x="349.963px" y="439.209px" style="font-family:'Graphik-Medium', 'Graphik', sans-serif;font-weight:500;font-size:12px;fill:rgb(210,210,210);">0</text>
        </g>
        <g transform="matrix(1,0,0,1,-306.236,-34.3151)">
            <text x="326.263px" y="439.209px" style="font-family:'Graphik-Medium', 'Graphik', sans-serif;font-weight:500;font-size:12px;fill:rgb(210,210,210);">2000</text>
        </g>
        <g transform="matrix(1,0,0,1,-306.236,-104.697)">
            <text x="322.663px" y="439.209px" style="font-family:'Graphik-Medium', 'Graphik', sans-serif;font-weight:500;font-size:12px;fill:rgb(210,210,210);">4<tspan x="330.235px 333.139px " y="439.209px 439.209px ">,0</tspan>00</text>
        </g>
        <g transform="matrix(1,0,0,1,-306.236,-174.401)">
            <text x="322.843px" y="439.209px" style="font-family:'Graphik-Medium', 'Graphik', sans-serif;font-weight:500;font-size:12px;fill:rgb(210,210,210);">6<tspan x="330.235px 333.139px " y="439.209px 439.209px ">,0</tspan>00</text>
        </g>
        <g transform="matrix(1,0,0,1,-306.236,-244.105)">
            <text x="322.951px" y="439.209px" style="font-family:'Graphik-Medium', 'Graphik', sans-serif;font-weight:500;font-size:12px;fill:rgb(210,210,210);">8<tspan x="330.235px 333.139px " y="439.209px 439.209px ">,0</tspan>00</text>
        </g>
        <g transform="matrix(1,0,0,1,-306.236,-313.131)">
            <text x="317.395px" y="439.209px" style="font-family:'Graphik-Medium', 'Graphik', sans-serif;font-weight:500;font-size:12px;fill:rgb(210,210,210);">10<tspan x="330.235px 333.139px " y="439.209px 439.209px ">,0</tspan>00</text>
        </g>
    </g>
    <g id="_-Contributions-to-ImageNet-1" serif:id="(Contributions to ImageNet)" transform="matrix(1,0,0,1,525.398,266.352)">
        <text x="0px" y="0px" style="font-family:'Graphik-Medium', 'Graphik', sans-serif;font-weight:500;font-size:16px;fill:rgb(72,1,255);">Hispanic</text>
    </g>
    <g id="_-Contributions-to-ImageNet-2" serif:id="(Contributions to ImageNet)" transform="matrix(1,0,0,1,525.398,355.29)">
        <text x="0px" y="0px" style="font-family:'Graphik-Regular', 'Graphik', sans-serif;font-size:16px;fill:rgb(210,210,210);">Asian</text>
    </g>
    <g id="_-Contributions-to-ImageNet-3" serif:id="(Contributions to ImageNet)" transform="matrix(1,0,0,1,525.398,408.83)">
        <text x="0px" y="0px" style="font-family:'Graphik-Regular', 'Graphik', sans-serif;font-size:16px;fill:rgb(210,210,210);">Black</text>
    </g>
    <g id="_-Contributions-to-ImageNet-4" serif:id="(Contributions to ImageNet)" transform="matrix(1,0,0,1,525.398,462.371)">
        <text x="0px" y="0px" style="font-family:'Graphik-Regular', 'Graphik', sans-serif;font-size:16px;fill:rgb(210,210,210);">White</text>
    </g>
    <g id="_-Contributions-to-ImageNet-5" serif:id="(Contributions to ImageNet)" transform="matrix(1,0,0,1,525.398,160.504)">
        <text x="0px" y="0px" style="font-family:'Graphik-Regular', 'Graphik', sans-serif;font-size:16px;fill:rgb(210,210,210);">Other</text>
    </g>
</svg>
